<svg width="24" height="24" viewBox="0 0 24 24" fill="none" xmlns="http://www.w3.org/2000/svg">
<g clip-path="url(#clip0_272_468)">
<path d="M23.794 0.206014C23.6111 0.023108 23.3425 -0.0445795 23.0948 0.0297173L1.58475 6.48276C0.636844 6.76711 0 7.62304 0 8.613C0 9.58922 0.655547 10.4583 1.59427 10.7265L10.6781 13.3219L13.2735 22.4058C13.5417 23.3445 14.4108 24 15.3874 24C16.377 24 17.2329 23.3632 17.5173 22.4153L23.9703 0.905202C24.0447 0.657467 23.977 0.38892 23.794 0.206014ZM1.40625 8.61267C1.40625 8.24887 1.64034 7.93425 1.98881 7.82972L20.8277 2.17805L11.0422 11.9635L1.98056 9.37444C1.64245 9.27778 1.40625 8.9647 1.40625 8.61267ZM16.1704 22.0112C16.0658 22.3597 15.7512 22.5938 15.387 22.5938C15.0353 22.5938 14.7223 22.3576 14.6257 22.0195L12.0366 12.9578L21.822 3.17236L16.1704 22.0112Z" fill="#555555"/>
</g>
<defs>
<clipPath id="clip0_272_468">
<rect width="24" height="24" fill="white"/>
</clipPath>
</defs>
</svg>
