<svg width="16" height="12" viewBox="0 0 16 12" fill="none" xmlns="http://www.w3.org/2000/svg">
<path d="M13.9117 0H1.31828C1.10399 9.28159e-05 0.892956 0.0524232 0.703449 0.15246C0.513943 0.252497 0.35168 0.397224 0.230713 0.574106L6.52676 5.03842C6.84486 5.26322 7.22481 5.38392 7.61433 5.38392C8.00385 5.38392 8.3838 5.26322 8.7019 5.03842L14.9973 0.574106C14.8765 0.3975 14.7146 0.252943 14.5254 0.152921C14.3363 0.0528977 14.1256 0.000413865 13.9117 0Z" fill="#242424"/>
<path d="M9.24699 5.80567C8.76973 6.14355 8.19939 6.325 7.61464 6.325C7.02989 6.325 6.45955 6.14355 5.9823 5.80567L0 1.56415V9.95228C0 10.3019 0.138888 10.6372 0.386112 10.8844C0.633335 11.1317 0.968641 11.2705 1.31827 11.2705H13.9117C14.2613 11.2705 14.5966 11.1317 14.8438 10.8844C15.0911 10.6372 15.2299 10.3019 15.2299 9.95228V1.56415L9.24699 5.80567Z" fill="#242424"/>
</svg>
