<svg width="28" height="28" viewBox="0 0 28 28" fill="none" xmlns="http://www.w3.org/2000/svg">
<g clip-path="url(#clip0_298_53)">
<path d="M0.875 4.93605H14.1971C14.5987 6.76365 16.2308 8.13571 18.1772 8.13571C20.1236 8.13571 21.7557 6.76371 22.1572 4.93605H27.125C27.6082 4.93605 28 4.54427 28 4.06105C28 3.57783 27.6082 3.18605 27.125 3.18605H22.1568C21.7545 1.35938 20.1202 -0.0135498 18.1772 -0.0135498C16.2332 -0.0135498 14.5996 1.35916 14.1975 3.18605H0.875C0.391781 3.18605 0 3.57783 0 4.06105C0 4.54427 0.391781 4.93605 0.875 4.93605ZM15.8526 4.06335C15.8526 4.06023 15.8527 4.05706 15.8527 4.05394C15.8565 2.77606 16.8993 1.7365 18.1772 1.7365C19.4533 1.7365 20.4961 2.77464 20.5016 4.05192L20.5018 4.06477C20.4998 5.34484 19.4578 6.38576 18.1772 6.38576C16.8972 6.38576 15.8555 5.34588 15.8526 4.06658L15.8526 4.06335ZM27.125 23.0639H22.1568C21.7545 21.2373 20.1202 19.8643 18.1772 19.8643C16.2332 19.8643 14.5996 21.2371 14.1975 23.0639H0.875C0.391781 23.0639 0 23.4556 0 23.9389C0 24.4222 0.391781 24.8139 0.875 24.8139H14.1971C14.5987 26.6415 16.2308 28.0136 18.1772 28.0136C20.1236 28.0136 21.7557 26.6415 22.1572 24.8139H27.125C27.6082 24.8139 28 24.4222 28 23.9389C28 23.4556 27.6082 23.0639 27.125 23.0639ZM18.1772 26.2636C16.8972 26.2636 15.8555 25.2237 15.8526 23.9444L15.8526 23.9412C15.8526 23.938 15.8527 23.9349 15.8527 23.9318C15.8565 22.6539 16.8993 21.6143 18.1772 21.6143C19.4533 21.6143 20.4961 22.6525 20.5016 23.9297L20.5018 23.9425C20.4999 25.2228 19.4579 26.2636 18.1772 26.2636ZM27.125 13.125H13.8029C13.4013 11.2974 11.7692 9.92541 9.82281 9.92541C7.87637 9.92541 6.24427 11.2974 5.84276 13.125H0.875C0.391781 13.125 0 13.5168 0 14C0 14.4833 0.391781 14.875 0.875 14.875H5.8432C6.24553 16.7016 7.87981 18.0746 9.82281 18.0746C11.7668 18.0746 13.4004 16.7018 13.8025 14.875H27.125C27.6082 14.875 28 14.4833 28 14C28 13.5168 27.6082 13.125 27.125 13.125ZM12.1474 13.9977C12.1474 14.0009 12.1473 14.004 12.1473 14.0071C12.1435 15.285 11.1007 16.3246 9.82281 16.3246C8.54667 16.3246 7.50389 15.2864 7.49837 14.0092L7.4982 13.9964C7.50012 12.7162 8.54219 11.6754 9.82281 11.6754C11.1028 11.6754 12.1445 12.7152 12.1474 13.9946L12.1474 13.9977Z" fill="black"/>
</g>
<defs>
<clipPath id="clip0_298_53">
<rect width="28" height="28" fill="white"/>
</clipPath>
</defs>
</svg>
