<svg width="30" height="30" viewBox="0 0 30 30" fill="none" xmlns="http://www.w3.org/2000/svg">
<g clip-path="url(#clip0_272_654)">
<path d="M15 18.0762C16.6989 18.0762 18.0762 16.6989 18.0762 15C18.0762 13.3011 16.6989 11.9238 15 11.9238C13.3011 11.9238 11.9238 13.3011 11.9238 15C11.9238 16.6989 13.3011 18.0762 15 18.0762Z" fill="black"/>
<path d="M15 0.351562C6.9099 0.351562 0.351562 6.9099 0.351562 15C0.351562 23.0901 6.9099 29.6484 15 29.6484C23.0901 29.6484 29.6484 23.0901 29.6484 15C29.6484 6.9099 23.0901 0.351562 15 0.351562ZM24.0503 18.723C23.98 20.1157 23.5886 21.489 22.5737 22.4931C21.549 23.5068 20.1691 23.8845 18.7631 23.9541H11.237C9.83074 23.8845 8.45109 23.5071 7.42635 22.4931C6.41139 21.489 6.0201 20.1157 5.94979 18.723V11.277C6.0201 9.8843 6.41145 8.51098 7.42635 7.5068C8.45109 6.49312 9.83092 6.11543 11.237 6.04588H18.763C20.1693 6.11543 21.5489 6.49295 22.5737 7.5068C23.5886 8.51098 23.9799 9.8843 24.0502 11.277L24.0503 18.723Z" fill="black"/>
<path d="M18.6679 7.74248C16.8348 7.6922 13.1656 7.6922 11.3325 7.74248C10.3785 7.76867 9.29704 8.00615 8.61735 8.73213C7.91106 9.48676 7.64416 10.3985 7.61709 11.4184C7.56951 13.2086 7.61709 18.5816 7.61709 18.5816C7.64809 19.6014 7.91106 20.5133 8.61735 21.2679C9.29704 21.9941 10.3785 22.2314 11.3325 22.2576C13.1656 22.3078 16.8348 22.3078 18.6679 22.2576C19.6219 22.2314 20.7034 21.9939 21.383 21.2679C22.0893 20.5133 22.3562 19.6016 22.3833 18.5816V11.4184C22.3562 10.3985 22.0893 9.48676 21.383 8.73213C20.7031 8.00592 19.6217 7.76867 18.6679 7.74248ZM15 19.7681C14.0569 19.7681 13.1351 19.4884 12.351 18.9645C11.5669 18.4406 10.9557 17.6959 10.5948 16.8247C10.234 15.9534 10.1395 14.9947 10.3235 14.0698C10.5075 13.1449 10.9616 12.2953 11.6284 11.6285C12.2953 10.9617 13.1448 10.5075 14.0698 10.3236C14.9947 10.1396 15.9534 10.234 16.8246 10.5949C17.6959 10.9558 18.4405 11.5669 18.9645 12.351C19.4884 13.1351 19.768 14.057 19.768 15C19.768 16.2646 19.2657 17.4774 18.3715 18.3715C17.4773 19.2657 16.2645 19.7681 15 19.7681ZM19.7883 11.2161C19.5997 11.2161 19.4154 11.1601 19.2586 11.0553C19.1018 10.9505 18.9796 10.8016 18.9074 10.6273C18.8353 10.4531 18.8165 10.2613 18.8533 10.0764C18.8901 9.89138 18.9809 9.72149 19.1143 9.58815C19.2477 9.45481 19.4176 9.36401 19.6026 9.32723C19.7876 9.29045 19.9793 9.30935 20.1535 9.38153C20.3278 9.45372 20.4767 9.57595 20.5815 9.73276C20.6862 9.88958 20.7422 10.0739 20.7422 10.2625C20.7422 10.3878 20.7175 10.5118 20.6695 10.6275C20.6216 10.7432 20.5513 10.8484 20.4628 10.9369C20.3742 11.0255 20.269 11.0957 20.1533 11.1436C20.0376 11.1915 19.9136 11.2162 19.7883 11.2161Z" fill="black"/>
</g>
<defs>
<clipPath id="clip0_272_654">
<rect width="30" height="30" fill="white"/>
</clipPath>
</defs>
</svg>
