<svg width="28" height="28" viewBox="0 0 28 28" fill="none" xmlns="http://www.w3.org/2000/svg">
<path d="M28 14C28 6.26801 21.732 0 14 0C6.26801 0 0 6.26801 0 14C0 21.732 6.26801 28 14 28C21.732 28 28 21.732 28 14Z" fill="#242424"/>
<path d="M20.2967 8.36438H7.70329C7.489 8.36447 7.27797 8.4168 7.08846 8.51684C6.89895 8.61688 6.73669 8.7616 6.61572 8.93849L12.9118 13.4028C13.2299 13.6276 13.6098 13.7483 13.9993 13.7483C14.3889 13.7483 14.7688 13.6276 15.0869 13.4028L21.3823 8.93849C21.2615 8.76188 21.0996 8.61732 20.9104 8.5173C20.7213 8.41728 20.5107 8.36479 20.2967 8.36438Z" fill="white"/>
<path d="M15.632 14.17C15.1547 14.5079 14.5844 14.6893 13.9997 14.6893C13.4149 14.6893 12.8446 14.5079 12.3673 14.17L6.38501 9.92847V18.3166C6.38501 18.6662 6.5239 19.0015 6.77112 19.2488C7.01834 19.496 7.35365 19.6349 7.70328 19.6349H20.2967C20.6463 19.6349 20.9816 19.496 21.2288 19.2488C21.4761 19.0015 21.615 18.6662 21.615 18.3166V9.92847L15.632 14.17Z" fill="white"/>
</svg>
