<svg width="17" height="16" viewBox="0 0 17 16" fill="none" xmlns="http://www.w3.org/2000/svg">
<path d="M16.2838 13.3665C15.946 14.3203 14.6055 15.1112 13.5363 15.3423C12.8048 15.498 11.8492 15.6223 8.63275 14.2888C4.5185 12.5843 1.869 8.4035 1.6625 8.13225C1.46475 7.861 0 5.9185 0 3.9095C0 1.9005 1.02025 0.92225 1.4315 0.50225C1.76925 0.1575 2.3275 0 2.863 0C3.03625 0 3.192 0.00875011 3.332 0.0157501C3.74325 0.0332501 3.94975 0.0577505 4.221 0.707C4.55875 1.52075 5.38125 3.52975 5.47925 3.73625C5.579 3.94275 5.67875 4.22275 5.53875 4.494C5.4075 4.774 5.292 4.89825 5.0855 5.13625C4.879 5.37425 4.683 5.55625 4.4765 5.81175C4.2875 6.034 4.074 6.272 4.312 6.68325C4.55 7.08575 5.3725 8.428 6.5835 9.506C8.14625 10.8972 9.41325 11.3418 9.8665 11.5308C10.2043 11.6708 10.6068 11.6375 10.8535 11.375C11.1667 11.0373 11.5535 10.4773 11.9473 9.926C12.2273 9.5305 12.5808 9.4815 12.9518 9.6215C13.3298 9.75275 15.33 10.7415 15.7413 10.9462C16.1525 11.1527 16.4237 11.2508 16.5235 11.424C16.6215 11.5973 16.6215 12.411 16.2838 13.3665Z" fill="#242424"/>
</svg>
