<svg width="28" height="28" viewBox="0 0 28 28" fill="none" xmlns="http://www.w3.org/2000/svg">
<path d="M14 0C11.2311 0 8.52431 0.821085 6.22202 2.35942C3.91973 3.89776 2.12532 6.08427 1.06569 8.64243C0.0060662 11.2006 -0.271181 14.0155 0.269012 16.7313C0.809205 19.447 2.14258 21.9416 4.10051 23.8995C6.05845 25.8574 8.55301 27.1908 11.2687 27.731C13.9845 28.2712 16.7994 27.9939 19.3576 26.9343C21.9157 25.8747 24.1022 24.0803 25.6406 21.778C27.1789 19.4757 28 16.7689 28 14C28 10.287 26.525 6.72601 23.8995 4.1005C21.274 1.475 17.713 0 14 0ZM14.6001 8.59973C15.8728 8.60121 17.0928 9.10742 17.9927 10.0073C18.8926 10.9072 19.3988 12.1272 19.4003 13.3999H18.2C18.199 12.4454 17.8194 11.5304 17.1445 10.8555C16.4696 10.1806 15.5546 9.80099 14.6001 9.8V8.59973ZM18.4875 22.4C18.4511 22.4 14.8475 22.3384 10.2135 17.7865C5.6616 13.1544 5.60001 9.54893 5.60001 9.51253C5.60001 9.0636 8.4 5.6 9.0188 5.6C9.23347 5.6 9.40054 5.7456 9.58347 5.964C10.024 6.48853 11.9719 9.56293 11.8823 10.0753C11.8393 10.3161 11.6349 10.4991 11.0488 10.9909C10.76 11.218 10.4897 11.4677 10.2405 11.7376C10.3599 12.2315 10.5372 12.7096 10.7688 13.1619C11.6317 14.9361 13.0654 16.3691 14.84 17.2312C15.2923 17.4628 15.7704 17.6401 16.2643 17.7595C16.5342 17.5103 16.7839 17.24 17.0109 16.9512C17.5028 16.3651 17.6857 16.1607 17.9265 16.1177C18.4389 16.0244 21.5133 17.976 22.0379 18.4165C22.2563 18.6032 22.4019 18.7665 22.4019 18.9812C22.4 19.6 18.9364 22.4 18.4875 22.4ZM21.1997 13.3999C21.1978 11.6501 20.5018 9.97266 19.2646 8.73543C18.0273 7.49819 16.3499 6.80224 14.6001 6.80027V5.6C16.668 5.60247 18.6505 6.42503 20.1127 7.88725C21.575 9.34948 22.3975 11.332 22.4 13.3999H21.1997Z" fill="#242424"/>
</svg>
